<svg width="115" height="115" viewBox="0 0 115 115" fill="none" xmlns="http://www.w3.org/2000/svg">
<rect width="114.213" height="114.213" rx="5" fill="url(#paint0_linear_0_170)"/>
<path d="M80.4583 10C87.7106 10.185 94.0868 12.3422 98.8915 17.9783C108.473 29.2134 105.353 49.9654 87.6099 54.7238C79.0032 57.0211 70.8773 55.6702 64.0023 49.5556C58.5928 44.747 56.507 38.3575 57.0239 31.1723C58.0319 17.2381 68.7915 10.5525 79.029 10.1137C79.5434 10.0793 80.0577 10.0291 80.4583 10ZM80.1223 23.3183C74.4879 23.3051 70.5826 27.3841 70.5723 33.2898C70.5723 39.2457 74.4233 43.4173 79.9698 43.4411C85.5655 43.4622 89.6362 39.2352 89.6517 33.3797C89.6646 27.5903 85.6326 23.3315 80.1223 23.3183Z" fill="white"/>
<path d="M79.2044 104.206C72.4974 103.915 65.5216 101.332 60.7789 94.3504C52.8494 82.6818 56.7289 62.7017 75.4076 59.0536C82.952 57.5811 90.0467 58.9135 96.1437 63.8516C102.38 68.9009 104.761 75.79 104.024 83.755C102.807 96.9015 92.2565 104.187 79.2044 104.206ZM70.5719 81.8226C70.5719 87.7283 74.472 91.9527 79.9901 91.995C85.5082 92.0373 89.6512 87.7257 89.6487 81.8728C89.6487 76.0781 85.609 71.8008 80.1012 71.7638C74.5935 71.7268 70.5822 75.9486 70.5719 81.8226Z" fill="white"/>
<path d="M41.6141 88.8036C38.7349 88.8036 36.2123 88.7639 33.6898 88.8247C32.7542 88.8458 32.3975 88.6132 32.4233 87.5875C32.4854 84.5051 32.4699 81.4227 32.4233 78.335C32.4233 77.4653 32.5887 77.0926 33.5502 77.0979C40.6552 77.1349 47.7654 77.1164 54.8652 77.119C55.4054 77.119 56.0438 76.9657 56.0128 77.9121C55.806 84.3016 54.7748 90.4531 50.8772 95.7085C47.4294 100.361 42.7668 102.944 37.179 103.835C29.5209 105.054 22.6149 103.383 16.784 98.019C12.9072 94.4608 10.9119 89.8425 10.2192 84.6161C9.03548 75.7073 12.5608 65.3181 22.8681 60.8241C27.2687 58.8511 32.1098 58.1349 36.8766 58.7515C43.5396 59.6133 48.6286 62.9336 52.1049 68.8446C52.6347 69.7487 52.6477 70.1796 51.6138 70.6951C48.5873 72.1729 45.6176 73.7722 42.635 75.3399C42.0948 75.6227 41.7614 75.784 41.2988 75.0755C38.4661 70.8009 35.0157 69.4315 30.5495 70.7454C26.4866 71.9403 23.504 75.9532 23.2972 80.5028C23.0258 86.501 26.1402 91.0929 31.4179 92.1635C35.1914 92.9302 38.5798 92.0287 41.6141 88.8036Z" fill="white"/>
<path d="M12.4 33.9702C12.4 27.1472 12.4439 20.3215 12.3638 13.4958C12.3483 12.0947 12.7851 11.8145 14.0438 11.8489C17.8345 11.9282 21.6252 11.9282 25.4159 11.8489C26.7082 11.8225 27.1114 12.1767 27.1011 13.5408C27.0442 22.4337 27.0726 31.3293 27.0726 40.2249C27.0726 42.3398 27.0726 42.3398 29.2178 42.3398H51.5641C53.2493 42.3398 53.2493 42.3398 53.2519 44.1189C53.2519 47.5978 53.2183 51.0767 53.2699 54.5557C53.288 55.6633 52.8848 56.0149 51.8433 56.0176C39.0927 56.0493 26.3481 56.103 13.6096 56.1788C12.4594 56.1788 12.3896 55.6131 12.3948 54.7064C12.4103 47.7943 12.412 40.8823 12.4 33.9702Z" fill="white"/>
<defs>
<linearGradient id="paint0_linear_0_170" x1="1.80697e-07" y1="43.5926" x2="163.663" y2="46.1557" gradientUnits="userSpaceOnUse">
<stop stop-color="#F01928"/>
<stop offset="1" stop-color="#FA770F"/>
</linearGradient>
</defs>
</svg>
